<svg id="Layer_1" data-name="Layer 1" xmlns="http://www.w3.org/2000/svg" xmlns:xlink="http://www.w3.org/1999/xlink" viewBox="0 0 511.11 58.67"><defs><style>.cls-1{mask:url(#mask);}.cls-2{fill:url(#linear-gradient);}.cls-3{fill:url(#linear-gradient-2);}.cls-4{fill:url(#linear-gradient-3);}.cls-5{fill:url(#linear-gradient-4);}.cls-6{fill:url(#linear-gradient-5);}.cls-7{fill:url(#linear-gradient-6);}.cls-8{filter:url(#luminosity-invert);}</style><filter id="luminosity-invert" filterUnits="userSpaceOnUse" color-interpolation-filters="sRGB"><feColorMatrix values="-1 0 0 0 1 0 -1 0 0 1 0 0 -1 0 1 0 0 0 1 0"/></filter><mask id="mask" x="137.44" y="7.51" width="368.96" height="43.66" maskUnits="userSpaceOnUse"><g class="cls-8"><path d="M162.75,16c.48,0,.7.26.7.84v3.74c0,.58-.22.84-.7.84H148.64c-3.26,0-4.21,1.19-4.21,5.24v5.43c0,4.05.95,5.23,4.21,5.23h14.11c.48,0,.7.27.7.84v3.75c0,.57-.22.84-.7.84H148.49c-6.44,0-8.88-2.75-8.88-10.09V26.05c0-7.34,2.44-10.09,8.88-10.09Z"/><path d="M181.94,16c1.64,0,2.59.57,3.64,2.9l10.5,23c.22.54.12.88-.39.88h-4c-.41,0-.6-.11-.73-.46l-2.09-4.66H173.66l-2.06,4.66a.66.66,0,0,1-.73.46h-4.15c-.51,0-.6-.34-.38-.88l10.4-23c1-2.33,2-2.9,3.32-2.9Zm4.66,16.66-4.92-11a.41.41,0,0,0-.38-.27h-.19c-.16,0-.25.08-.35.27l-4.88,11Z"/><path d="M221.82,16c.44,0,.7.26.7.84v3.7c0,.54-.26.85-.7.85H205.94c-1.14,0-1.68.65-1.68,2.06v1.3c0,1.37.5,1.95,1.68,1.95h11.85c3.55,0,5.55,2.44,5.55,6.72v3.1c0,3.94-2,6.23-5.61,6.23H200.17c-.48,0-.7-.27-.7-.84V38.16c0-.53.22-.84.7-.84h16.64c1.11,0,1.68-.65,1.68-2.06V33.69c0-1.38-.47-1.95-1.65-1.95H205c-3.55,0-5.51-2.44-5.51-6.73V22.19c0-3.94,1.93-6.23,5.58-6.23Z"/><path d="M240.78,16c1.65,0,2.6.57,3.65,2.9l10.49,23c.22.54.13.88-.38.88h-4c-.41,0-.6-.11-.73-.46l-2.09-4.66H232.51l-2.06,4.66a.66.66,0,0,1-.73.46h-4.16c-.5,0-.6-.34-.38-.88l10.4-23c1-2.33,2-2.9,3.33-2.9Zm4.66,16.66-4.91-11a.41.41,0,0,0-.38-.27H240c-.16,0-.26.08-.35.27l-4.88,11Z"/><path d="M264.34,16c2.28,0,2.66.57,3.68,2.25l11.66,18.65a.44.44,0,0,0,.42.27h.28c.16,0,.25-.11.25-.38V16.8c0-.58.23-.84.7-.84h3.39c.48,0,.7.26.7.84V38.74c0,3-.85,4-2.85,4h-2.82c-2.29,0-2.67-.57-3.65-2.25L264.4,21.8a.43.43,0,0,0-.41-.26h-.28c-.19,0-.26.11-.26.38V41.87c0,.57-.25.84-.7.84h-3.39c-.47,0-.7-.27-.7-.84V19.93c0-3,.83-4,2.83-4Z"/><path d="M304.73,16c1.65,0,2.6.57,3.65,2.9l10.49,23c.22.54.13.88-.38.88h-4c-.42,0-.61-.11-.73-.46l-2.1-4.66H296.46l-2.06,4.66a.66.66,0,0,1-.73.46h-4.16c-.5,0-.6-.34-.38-.88l10.4-23c1-2.33,2-2.9,3.33-2.9Zm4.66,16.66-4.91-11a.41.41,0,0,0-.38-.27h-.19c-.16,0-.26.08-.35.27l-4.88,11Z"/><path d="M340.56,16c4.72,0,6.82,2.56,6.82,7.83V26c0,4.43-1.46,7-4.6,7.8l5.29,7.91a.61.61,0,0,1-.41,1h-4.25a.87.87,0,0,1-.89-.5l-5-7.76H327.43v7.42c0,.57-.22.84-.69.84h-3.43c-.47,0-.69-.27-.69-.84V17.1c0-.76.31-1.14.95-1.14Zm-1,13.45c2.15,0,2.94-.92,2.94-3.21V24.6c0-2.34-.82-3.29-2.94-3.29H327.85c-.29,0-.42.11-.42.42v7.68Z"/><path d="M374.33,16c.44,0,.69.26.69.84v3.7c0,.54-.25.85-.69.85H360.41c-3.27,0-4.12,1.1-4.12,5.12v.19h17.85c.44,0,.69.27.69.84v3.4c0,.57-.25.84-.69.84H356.29v.46c0,4,.85,5.12,4.12,5.12h13.92c.44,0,.69.31.69.84v3.71c0,.57-.25.84-.69.84H360.38c-6.44,0-8.88-2.79-8.88-10.09V26.05c0-7.3,2.44-10.09,8.88-10.09Z"/><path d="M407.11,16c6.88,0,9.7,3.32,9.7,10.78v5.19c0,7.46-2.82,10.78-9.7,10.78h-14.8c-.64,0-1-.38-1-1.15V17.1q0-1.14,1-1.14ZM396.17,36.83c0,.34.13.49.42.49H407c3.74,0,5-1.37,5-5.88V27.23c0-4.51-1.27-5.88-5-5.88H396.59c-.29,0-.42.15-.42.49Z"/><path d="M444.36,16c.45,0,.7.26.7.84v3.7c0,.54-.25.85-.7.85H430.45c-3.27,0-4.12,1.1-4.12,5.12v.19h17.84c.45,0,.7.27.7.84v3.4c0,.57-.25.84-.7.84H426.33v.46c0,4,.85,5.12,4.12,5.12h13.91c.45,0,.7.31.7.84v3.71c0,.57-.25.84-.7.84H430.42c-6.44,0-8.88-2.79-8.88-10.09V26.05c0-7.3,2.44-10.09,8.88-10.09Z"/><path d="M452.7,16a.64.64,0,0,1,.73.49L462.66,37a.39.39,0,0,0,.38.26h.16a.4.4,0,0,0,.38-.26l9.16-20.57a.65.65,0,0,1,.73-.49h4.09c.51,0,.6.38.38.88l-10.37,23c-1,2.33-2,2.9-3.36,2.9h-1.87c-1.65,0-2.63-.57-3.64-2.9l-10.5-23c-.22-.5-.12-.88.38-.88Z"/><path d="M502.7,16c.45,0,.7.26.7.84v3.7c0,.54-.25.85-.7.85H486.82c-1.14,0-1.68.65-1.68,2.06v1.3c0,1.37.51,1.95,1.68,1.95h11.86c3.55,0,5.55,2.44,5.55,6.72v3.1c0,3.94-2,6.23-5.62,6.23H481.05c-.48,0-.7-.27-.7-.84V38.16c0-.53.22-.84.7-.84h16.64c1.11,0,1.68-.65,1.68-2.06V33.69c0-1.38-.47-1.95-1.64-1.95H485.84c-3.55,0-5.52-2.44-5.52-6.73V22.19c0-3.94,1.93-6.23,5.58-6.23Z"/></g></mask><linearGradient id="linear-gradient" x1="137.44" y1="29.33" x2="506.4" y2="29.33" gradientUnits="userSpaceOnUse"><stop offset="0" stop-color="#7bd0e7"/><stop offset="0.01" stop-color="#78c8e3"/><stop offset="0.04" stop-color="#6ca5d0"/><stop offset="0.07" stop-color="#6289c1"/><stop offset="0.11" stop-color="#5a73b5"/><stop offset="0.14" stop-color="#5463ac"/><stop offset="0.19" stop-color="#515aa8"/><stop offset="0.25" stop-color="#5057a6"/><stop offset="0.75" stop-color="#ab5ca4"/><stop offset="0.81" stop-color="#af61a7"/><stop offset="0.88" stop-color="#b96fae"/><stop offset="0.95" stop-color="#ca86ba"/><stop offset="1" stop-color="#d798c4"/></linearGradient><linearGradient id="linear-gradient-2" x1="122.3" y1="19" x2="84.24" y2="57.06" gradientUnits="userSpaceOnUse"><stop offset="0.23" stop-color="#611756"/><stop offset="0.27" stop-color="#641959"/><stop offset="0.31" stop-color="#6e1f62"/><stop offset="0.34" stop-color="#7f2972"/><stop offset="0.37" stop-color="#963888"/><stop offset="0.38" stop-color="#a03e91"/><stop offset="0.58" stop-color="#b159a0"/><stop offset="1" stop-color="#da9bc5"/></linearGradient><linearGradient id="linear-gradient-3" x1="89.33" y1="6.78" x2="118.22" y2="35.67" gradientUnits="userSpaceOnUse"><stop offset="0" stop-color="#634b95"/><stop offset="0.13" stop-color="#664d97"/><stop offset="0.22" stop-color="#6f529f"/><stop offset="0.25" stop-color="#7454a3"/><stop offset="0.58" stop-color="#8d58a4"/><stop offset="1" stop-color="#b25ea5"/></linearGradient><linearGradient id="linear-gradient-4" x1="31.25" y1="62.01" x2="90.86" y2="2.4" gradientUnits="userSpaceOnUse"><stop offset="0.01" stop-color="#57358b"/><stop offset="0.18" stop-color="#59378d"/><stop offset="0.24" stop-color="#603e93"/><stop offset="0.28" stop-color="#69479c"/><stop offset="0.49" stop-color="#7453a2"/><stop offset="0.86" stop-color="#9072b3"/><stop offset="1" stop-color="#9c7fba"/></linearGradient><linearGradient id="linear-gradient-5" x1="10.26" y1="35.03" x2="42.61" y2="2.69" gradientUnits="userSpaceOnUse"><stop offset="0.34" stop-color="#3f589e"/><stop offset="0.38" stop-color="#425da4"/><stop offset="0.42" stop-color="#4765af"/><stop offset="0.54" stop-color="#4c74b8"/><stop offset="0.77" stop-color="#599cce"/><stop offset="0.81" stop-color="#5ca4d3"/><stop offset="0.98" stop-color="#6acdea"/></linearGradient><linearGradient id="linear-gradient-6" x1="56.44" y1="69.78" x2="4.14" y2="17.48" gradientUnits="userSpaceOnUse"><stop offset="0" stop-color="#5153a3"/><stop offset="0.26" stop-color="#5256a5"/><stop offset="0.44" stop-color="#535faa"/><stop offset="0.59" stop-color="#566eb2"/><stop offset="0.72" stop-color="#5b83bf"/><stop offset="0.84" stop-color="#609ecf"/><stop offset="0.96" stop-color="#67c0e2"/><stop offset="1" stop-color="#6acdea"/></linearGradient></defs><g class="cls-1"><rect class="cls-2" x="137.44" y="7.51" width="368.96" height="43.66"/></g><polygon class="cls-3" points="99.39 53.57 76.57 53.57 111.78 17.87 123.13 29.33 99.39 53.57"/><polygon class="cls-4" points="111.85 40.87 123.13 29.33 99.34 5.23 76.57 5.1 111.85 40.87"/><polygon class="cls-5" points="51.27 53.57 28.46 53.57 76.57 5.1 99.34 5.23 51.27 53.57"/><polygon class="cls-6" points="27.52 29.33 4.71 29.33 28.5 5.23 51.27 5.1 27.52 29.33"/><polygon class="cls-7" points="28.46 53.57 51.27 53.57 16.16 17.73 4.71 29.33 28.46 53.57"/></svg>