<svg xmlns="http://www.w3.org/2000/svg" xmlns:xlink="http://www.w3.org/1999/xlink" viewBox="0 0 67.78 67.78" fill="#fff" fill-rule="evenodd" stroke="#000" stroke-linecap="round" stroke-linejoin="round"><use xlink:href="#A" x="1.89" y="1.89"/><symbol id="A" overflow="visible"><path d="M37.619.015a4.12 4.12 0 0 0-1.285.227c.762.5 1.31 1.265 1.538 2.147.015.113.049.197.064.314s.038.197.038.302c.068 1.455-.378 1.637-.695 2.495-.48 1.108-.348 2.298.227 3.251.053.127.118.249.197.363-.627-4.18 2.861-4.811 3.504-6.115.049-1.141-.892-1.901-1.637-2.43-.584-.369-1.26-.565-1.95-.567zm5.291.945c-.068.378-.015.28-.038.48l-.038.431-.113.397-.132.397-.181.378-.132.196-.098.151-.249.329c-.098.098-.181.216-.302.302s-.197.197-.314.28c-.348.265-.745.461-1.108.711-.113.083-.227.151-.329.249-.112.079-.217.168-.314.265-.113.098-.197.196-.302.314-.094.101-.178.211-.249.329l-.227.348-.181.378-.132.378-.113.378c-.015.068-.015.151-.038.216s-.015.132-.038.196l-.015.378a2.08 2.08 0 0 0 .015.302 1.85 1.85 0 0 0 .049.416l.083.397.132.397.113.227-3.802-1.512-1.916-.491-1.043-.25-3.009-.446c-.038 0-.049-.015-.083-.015l-2.959-.151-2.166.083-3.024.363-.745.132-1.489.329-.745.197-.71.314-.544.249c-.038.015-.068.015-.083.038l-.461.227c-.049.015-.083.038-.113.049l-.514.264c-.113.049-.227.113-.329.166-.049.038-.113.064-.151.083l-.472.363a4.14 4.14 0 0 0-.397.25l-.329.227-.363.265-.28.227c-.038.015-.068.049-.098.068l-.249.216c-.015.038-.049.049-.068.068l-.302.28-.329.314-.28.302c-.038.038-.083.068-.113.098l-.28.299c-.015.038-.049.049-.068.083l-.378.397-.892.858c-.293.261-.603.503-.926.726l-.99.627a9.08 9.08 0 0 1-1.043.491l-1.073.397c-.695.151-1.406.431-2.018.48-.132 0-.28.038-.378.049l-.378.098-.397.151c-.135.054-.268.114-.397.181-.113.083-.25.151-.363.227-.117.084-.227.177-.329.28l-.329.302-.28.329-.249.378c-.087.121-.163.249-.23.382l-.181.431-.151.431-.083.397c-.049.196-.049.397-.068.491s0 .219 0 .34a.95.95 0 0 0 .015.215c.015.113.038.216.068.314l.113.302a1.83 1.83 0 0 0 .182.314l.215.302.28.265c.097.097.202.185.314.265.397.348.491.461 1.009.726.083.049.166.083.265.132.049.049.049.064.068.098.015.132.049.265.083.397a2.23 2.23 0 0 0 .132.397l.132.302c.015.038.038.068.049.083l.197.363.249.348.28.314.314.28.329.249c.113.083.227.151.363.215.122.07.25.131.382.181a1.78 1.78 0 0 0 .329.113l.28.083c-.049.892-.068 1.739.068 2.033.151.329.877-.68 1.603-1.833-.098 1.142-.166 2.48 0 2.873s1.134-.877 2.033-2.298c11.717-2.71 22.413 5.39 23.536 16.827-.215-1.784-2.411-2.778-3.421-2.532-.491 1.225-1.338 2.797-2.695 3.768.117-1.104.061-2.22-.166-3.307-.37 1.522-1.069 2.943-2.049 4.165-1.569.113-3.137-.642-3.969-1.784-.068-.049-.083-.151-.132-.215l-.132-.348a1.26 1.26 0 0 1-.098-.348c-.015-.121-.015-.227-.015-.363v-.249c.015-.113.049-.227.083-.348l.113-.348c.068-.113.113-.227.197-.348.28-.756.28-1.436-.227-1.814-.099-.065-.204-.121-.314-.166-.068-.015-.151-.049-.215-.068l-.132-.049-.348-.083c-.113-.033-.23-.049-.348-.049a2.69 2.69 0 0 0-.363-.034c-.083 0-.166.015-.25.015-.123-.001-.245.016-.363.049l-.348.064-.348.113-.329.151-.314.166c-3.855 2.513-1.512 8.391 1.073 10.099-.99.181-2.003.397-2.279.612.68.461 1.421.831 2.2 1.141l2.676.756c1.372.302 2.759.397 4.165.314 7.358-.539 13.351-6.121 14.412-13.421l.098.431.151.926.068.446v.491.544.265c0 .083.015.181.015.264s-.015.197-.015.302v.227l-.015.329c0 .064 0 .132-.015.215l-.015.363c-.015.049-.015.098-.015.151l-.049.378c0 .049 0 .098-.015.151l-.064.48v.038l-.098.461-.098.491-.265 1.028-.166.529-.363.96-.197.48-.227.461c-.015.049-.038.083-.049.113-1.108 2.215-2.695 4.158-4.679 5.601-.132.083-.265.181-.397.28-.038.038-.083.049-.113.083l-.363.25.049.098h.015l.695-.098h.015l1.285-.227a2.51 2.51 0 0 0 .363-.083l.227-.049.348-.064.302-.083a31.79 31.79 0 0 0 4.793-1.587c-2.627 3.591-6.149 6.478-10.265 8.379 1.901-.132 3.802-.446 5.669-.975 6.66-1.965 12.265-6.444 15.621-12.48-.681 3.827-2.198 7.456-4.445 10.628 1.601-1.057 3.081-2.286 4.414-3.666 3.699-3.863 6.128-8.765 6.958-14.049a26.23 26.23 0 0 1 .48 7.967c11.932-16.645.99-33.903-3.591-38.446-.015-.038-.038-.049-.038-.083-.038.197-.049.397-.064.593-.049.378-.098.745-.166 1.108s-.181.726-.28 1.134-.249.711-.397 1.058-.314.68-.491 1.009a11.23 11.23 0 0 1-.593.941c-.215.314-.446.612-.68.892a12.35 12.35 0 0 1-.779.828 11.85 11.85 0 0 1-.48.416l-.378.329a9.2 9.2 0 0 1-.926.646 11.44 11.44 0 0 1-.975.563c-.348.166-.695.314-1.043.461-.352.133-.71.249-1.073.348s-.745.181-1.107.25-.756.098-1.123.132c-.265.015-.529.038-.756.038-.378 0-.756-.038-1.123-.068a8.34 8.34 0 0 1-1.126-.166 8.34 8.34 0 0 1-1.107-.28h-.015c.363-.038.726-.068 1.134-.132s.745-.151 1.107-.249.726-.216 1.073-.348.711-.302 1.043-.461c.339-.165.669-.347.99-.544.314-.215.627-.431.926-.661s.578-.479.843-.745c.28-.25.529-.529.779-.809s.48-.593.696-.892c.038-.049.068-.113.098-.166l.48-.756c.183-.327.347-.664.491-1.009s.28-.696.397-1.058.197-.711.28-1.073.135-.735.166-1.107a11.11 11.11 0 0 0 .064-1.123 7.77 7.77 0 0 0-.038-.756c-.038-.378-.083-.745-.132-1.107-.066-.373-.149-.742-.249-1.107-.113-.348-.227-.711-.363-1.058s-.302-.695-.461-1.02c-.169-.336-.359-.662-.567-.975s-.428-.614-.662-.907l-.756-.843c-.14-.142-.283-.279-.431-.412-.741-.576-1.507-1.117-2.298-1.621a4.49 4.49 0 0 0-.329-.166c-.49-.3-1.017-.534-1.569-.695z" stroke="none" fill="#ea2845"/></symbol></svg>