<svg xmlns="http://www.w3.org/2000/svg" xmlns:xlink="http://www.w3.org/1999/xlink" viewBox="0 0 65 27" fill="#fff" fill-rule="evenodd" stroke="#000" stroke-linecap="round" stroke-linejoin="round"><style><![CDATA[.B{fill-rule:nonzero}.C{stroke:none}]]></style><use xlink:href="#S" x=".5" y=".5"/><defs><linearGradient id="A" x1="50%" y1="0%" x2="50%" y2="100%"><stop offset="0%" stop-color="#0994dc"/><stop offset="35%" stop-color="#66cef5"/><stop offset="85%" stop-color="#127bca"/></linearGradient><linearGradient id="B" x1="50%" y1="0%" x2="50%" y2="100%"><stop offset="0%" stop-color="#0e76bc"/><stop offset="36%" stop-color="#36aee8"/><stop offset="84%" stop-color="#00adef"/></linearGradient><linearGradient id="C" x1="50%" y1="100%" x2="50%" y2="0%"><stop offset="0%" stop-color="#1c63b7"/><stop offset="50%" stop-color="#33bdf2"/><stop offset="100%" stop-color="#33bdf2" stop-opacity=".5"/></linearGradient><linearGradient id="D" x1="50%" y1="0%" x2="50%" y2="100%"><stop offset="0%" stop-color="#166ab8"/><stop offset="38%" stop-color="#36aee8"/><stop offset="84%" stop-color="#0798dd"/></linearGradient><linearGradient id="E" x1="50%" y1="0%" x2="50%" y2="100%"><stop offset="0%" stop-color="#124379"/><stop offset="38%" stop-color="#1487cb"/><stop offset="84%" stop-color="#165197"/></linearGradient><linearGradient id="F" x1="50%" y1="100%" x2="50%" y2="0%"><stop offset="0%" stop-color="#33bdf2" stop-opacity=".5"/><stop offset="100%" stop-color="#1dacd8"/></linearGradient><linearGradient id="G" x1="50%" y1="100%" x2="50%" y2="0%"><stop offset="0%" stop-color="#136ab4"/><stop offset="61%" stop-color="#59caf5" stop-opacity=".5"/><stop offset="100%" stop-color="#59caf5" stop-opacity=".2"/></linearGradient><linearGradient id="H" x1="50%" y1="0%" x2="50%" y2="100%"><stop offset="0%" stop-color="#05a1e6"/><stop offset="100%" stop-color="#05a1e6" stop-opacity=".25"/></linearGradient><linearGradient id="I" x1="50%" y1="100%" x2="50%" y2="0%"><stop offset="0%" stop-color="#318ed5"/><stop offset="100%" stop-color="#38a7e4"/></linearGradient><linearGradient id="J" x1="50%" y1="100%" x2="50%" y2="0%"><stop offset="0%" stop-color="#05a1e6"/><stop offset="100%" stop-color="#05a1e6" stop-opacity=".25"/></linearGradient><linearGradient id="K" x1="50%" y1="100%" x2="50%" y2="0%"><stop offset="0%" stop-color="#1959a6"/><stop offset="50%" stop-color="#05a1e6"/><stop offset="100%" stop-color="#7ec5ea"/></linearGradient><linearGradient id="L" x1="50%" y1="100%" x2="50%" y2="0%"><stop offset="0%" stop-color="#165096"/><stop offset="100%" stop-color="#0d82ca"/></linearGradient><linearGradient id="M" x1="50%" y1="0%" x2="50%" y2="100%"><stop offset="0%" stop-color="#05a1e6"/><stop offset="85%" stop-color="#0495d6"/></linearGradient><linearGradient id="N" x1="50%" y1="100%" x2="50%" y2="0%"><stop offset="0%" stop-color="#38a7e4"/><stop offset="100%" stop-color="#0e88d3" stop-opacity=".3"/></linearGradient><linearGradient id="O" x1="50%" y1="0%" x2="50%" y2="100%"><stop offset="0%" stop-color="#168cd4"/><stop offset="70%" stop-color="#1c87cc"/><stop offset="100%" stop-color="#154b8d"/></linearGradient><linearGradient id="P" x1="0%" y1="50%" x2="100%" y2="50%"><stop offset="0%" stop-color="#97d6ee"/><stop offset="100%" stop-color="#55c1ea"/></linearGradient><linearGradient id="Q" x1="0%" y1="50%" x2="100%" y2="50%"><stop offset="0%" stop-color="#7accec"/><stop offset="100%" stop-color="#3fb7ed"/></linearGradient><linearGradient id="R" x1="50%" y1="0%" x2="50%" y2="100%"><stop offset="0%" stop-color="#1da7e7"/><stop offset="100%" stop-color="#37abe7" stop-opacity="0"/></linearGradient></defs><symbol id="S" overflow="visible"><path d="M53.147 23.08h-.57v1.772h-.233V23.08h-.572v-.211h1.375v.211zm2.336 1.772h-.232V23.52l.019-.385h0a1.35 1.35 0 0 1-.062.194l-.675 1.523h-.113l-.677-1.512a1.1 1.1 0 0 1-.061-.205h-.008c.008.08.011.209.011.388v1.329h-.222v-1.983h.307l.608 1.384a1.8 1.8 0 0 1 .09.238h.009l.096-.244.621-1.378h.292v1.983z" fill="#000" class="B C"/><path d="M22.228 5.207c2.307 7.053 3.18 19.636 9.925 19.636h0c.514 0 1.032-.05 1.553-.149h0c-6.131-1.43-6.858-13.875-10.599-20.32h0c-.293.267-.585.545-.879.834" fill="url(#A)" class="B C"/><path d="M23.107 4.373c3.741 6.445 4.468 18.891 10.599 20.32h0c.482-.089.964-.222 1.448-.391h0c-5.503-2.697-7.025-14.782-11.273-20.6h0a26.48 26.48 0 0 0-.774.671" fill="url(#B)" class="B C"/><path d="M28.498.54a8.33 8.33 0 0 0-1.554.149c-1.365.257-2.751.845-4.149 1.734.382.377.745.808 1.087 1.278 1.421-1.18 2.834-2.051 4.241-2.575.528-.196 1.054-.343 1.582-.439C29.323.59 28.922.54 28.498.54" fill="#14559a" class="B C"/><path d="M39.451 21.816l1.692-1.483C38.799 13.313 37.961.55 31.169.55a8.04 8.04 0 0 0-1.465.136c6.187 1.539 6.979 14.999 9.747 21.13" fill="url(#C)" class="B C"/><path d="M29.704.687A4.88 4.88 0 0 0 28.498.54l2.671.01c-.486 0-.976.045-1.465.137" fill="#3092c4" class="B C"/><path d="M39.332 23.308c-.266-.253-.518-.531-.766-.828-1.142.809-2.281 1.422-3.412 1.822.402.197.824.343 1.272.433a5.39 5.39 0 0 0 1.084.107c1.269 0 2.273-.15 3.127-.56-.47-.254-.902-.584-1.305-.975" fill="#1969bc" class="B C"/><path d="M28.122 1.128c5.541 2.898 6.023 16.023 10.445 21.353h0c.296-.209.59-.43.883-.664h0c-2.768-6.131-3.559-19.593-9.745-21.13h0c-.528.099-1.055.245-1.583.442" fill="url(#D)" class="B C"/><path d="M23.881 3.702c4.249 5.818 5.77 17.904 11.273 20.6h0c1.131-.399 2.269-1.013 3.412-1.822h0c-4.422-5.329-4.903-18.454-10.445-21.353h0c-1.407.523-2.819 1.395-4.24 2.574" fill="url(#E)" class="B C"/><path d="M19.51 5.037c-.666 1.506-1.346 3.485-2.169 6.068 1.635-2.305 3.266-4.29 4.887-5.899-.223-.687-.463-1.32-.721-1.884-.663.507-1.331 1.079-1.997 1.714" fill="url(#F)" class="B C"/><path d="M22.098 2.889l-.59.434a17.74 17.74 0 0 1 .72 1.884l.879-.834c-.314-.539-.647-1.037-1.01-1.484" fill="#2b74b1" class="B C"/><path d="M22.795 2.423l-.698.465c.362.447.696.945 1.011 1.485l.774-.672c-.342-.47-.705-.902-1.087-1.278" fill="#125a9e" class="B C"/><path d="M60.592.003c-3.134 12.086-9.68 21.794-15.168 24.242l-.307.127c-.013.008-.026.009-.036.014-.029.012-.056.021-.084.032-.013.008-.026.011-.038.016-.046.017-.092.03-.137.049-.02.008-.038.013-.057.02s-.044.016-.068.022-.042.014-.066.023-.04.012-.059.02c-.04.012-.077.021-.117.035-.017 0-.032.009-.049.013-.025.008-.053.014-.079.021-.019.008-.034.011-.054.015-.028.008-.059.016-.086.022l-.105.023c.248.092.506.138.785.138C50.071 24.835 55.318 15.509 64 0h-3.409z" fill="url(#G)" class="B C"/><path d="M16.211 1.031c.013-.008.02-.008.022-.016.035-.01.062-.021.091-.032s.031-.016.038-.017l.091-.032c.074-.021.138-.046.205-.07.009 0 .019-.008.03-.008l.085-.026c.013-.008.027-.008.039-.012l.086-.026c.012 0 .024-.008.033-.009l.286-.074c.013 0 .025-.008.039-.009.028-.008.054-.012.083-.017.012-.008.027-.008.041-.012.028-.008.054-.009.084-.016l.194-.032h.035c.028-.008.052-.009.08-.014.015 0 .031-.008.045-.008.026 0 .051-.008.077-.012.013 0 .027 0 .042-.008l.187-.017-.554-.029C11.712.535 3.637 11.409 0 25.491h.701c1.164-2.076 2.21-4.04 3.166-5.883C6.414 9.634 11.603 2.831 16.212 1.029" fill="url(#H)" class="B C"/><g fill="#0d82ca"><path d="M19.51 5.037a24.34 24.34 0 0 1 1.997-1.714l-.476-.919c-.536.65-1.026 1.509-1.521 2.633" class="B C"/><path d="M19.991 1.113c.383.321.726.763 1.04 1.292l.303-.339c-.435-.407-.906-.74-1.416-.991.021.011.041.021.063.03" class="B C"/></g><path d="M3.867 19.609C9.211 9.311 11.743 2.794 16.212 1.03h0C11.604 2.833 6.414 9.636 3.867 19.609" fill="url(#I)" class="B C"/><path d="M21.334 2.066l-.303.339a9.56 9.56 0 0 1 .477.919l.59-.434c-.242-.298-.497-.575-.764-.823" fill="#127bca" class="B C"/><path d="M6.292 25.446h0c-.033.008-.066.008-.097.012-.046 0-.075.008-.101.008l-.21.013h-.021c5.409-.151 7.881-2.859 9.108-6.787l2.369-7.591c-2.265 3.189-4.541 6.99-6.829 11.248-1.103 2.052-2.781 2.91-4.22 3.093" fill="url(#J)" class="B C"/><path d="M6.293 25.444h0c1.439-.183 3.117-1.04 4.22-3.093h0c2.288-4.257 4.565-8.059 6.828-11.248h0c.823-2.584 1.503-4.563 2.17-6.068h0c-4.511 4.294-9.04 11.434-13.218 20.407" fill="url(#K)" class="B C"/><path d="M3.866 19.609L.7 25.492h2.039a49.83 49.83 0 0 1 1.127-5.882" fill="#05a1e6" class="B C"/><path d="M17.939.585c-.017 0-.029.008-.043.008h0c-.025.008-.05.008-.076.011h0c-.015 0-.03 0-.045.008h0c-.028.008-.054.009-.08.014h0c-.012 0-.025 0-.035.008h0l-.174.03h0-.02a.69.69 0 0 1-.084.017h0c-.014.008-.029.008-.042.011h0c-.028.008-.056.012-.082.017h0c-.014.008-.026.008-.039.009h0l-.286.074h0c-.01 0-.021.008-.033.01h0l-.086.026h0c-.012.008-.027.008-.039.011h0l-.085.026h0c-.011 0-.021.008-.031.008h0l-.199.07h0 0l-.091.031h0c-.012.008-.024.01-.038.016h0c-.029.009-.058.021-.084.031h0c-.01.008-.021.009-.028.013h0C11.748 2.799 9.216 9.316 3.872 19.614h0a49.62 49.62 0 0 0-1.127 5.882h0 .286l1.961-.008h0 .047.138.047.013.047.027.019.037.115.115.097.026.17 0c.064-.008.13-.008.197-.013h0 .012c.028 0 .056-.008.082-.008h0 .02c.03 0 .064-.008.097-.012h0 0c4.178-8.973 8.706-16.113 13.218-20.407h0c.496-1.124.985-1.982 1.52-2.632h0c-.313-.529-.656-.972-1.039-1.293h0l-.011-.008c-.022-.009-.042-.02-.064-.03h0c-.022-.012-.04-.021-.063-.032h0a.68.68 0 0 1-.062-.03h0c-.027-.008-.048-.02-.072-.03h0c-.02-.008-.037-.017-.057-.025h0c-.04-.016-.08-.032-.118-.049h0c-.018-.008-.034-.012-.05-.019h0c-.028-.01-.06-.023-.089-.035h0c-.014-.008-.031-.01-.047-.016h0l-.123-.042h0-.01c-.047-.016-.094-.027-.142-.04h0c-.011-.008-.021-.008-.032-.01h0l-.119-.034h0c-.01 0-.02-.008-.028-.008h0c-.097-.026-.197-.046-.297-.065h0c-.01 0-.021-.008-.031-.008h0c-.043-.008-.085-.016-.129-.021h0c-.01-.008-.017-.008-.026-.008h0c-.051-.008-.102-.014-.152-.02h0-.027 0c-.041-.008-.079-.009-.117-.013h0c-.065.008-.127.012-.187.017" fill="url(#L)" class="B C"/><path d="M48.35 6.694l-2.585 8.246h0c2.821-3.882 5.6-8.766 8.246-14.402h0c-3.087.969-4.734 3.189-5.661 6.156" fill="url(#M)" class="B C"/><path d="M45.854 24.039l-.43.206C50.912 21.797 57.458 12.089 60.592.003h-.635c-7.201 12.862-9.516 21.473-14.103 24.036" fill="url(#N)" class="B C"/><path d="M42.271 22.958c1.194-1.457 2.167-3.935 3.494-8.018-1.532 2.104-3.073 3.912-4.616 5.387.328 1.022.698 1.912 1.119 2.631" fill="#079ae1" class="B C"/><path d="M42.271 22.958c-.407.496-.837.874-1.315 1.154l-.319.171c.505.273 1.057.455 1.675.528h0 0l.274.024h.017a.73.73 0 0 1 .132.008h.018.135.145.045.103c.017 0 .034 0 .05-.008.032 0 .066 0 .099-.008h.049c.034 0 .071-.008.107-.012.019 0 .03-.008.041-.008.038-.008.077-.012.114-.017h.034l.129-.021h.008l.269-.054c-.708-.259-1.301-.871-1.811-1.741" fill="#1969bc" class="B C"/><g fill="#1e5cb3"><path d="M32.153 24.842c.514 0 1.032-.05 1.553-.15.482-.087.964-.221 1.448-.39.402.197.824.343 1.271.433a5.4 5.4 0 0 0 1.085.107h-5.357z" class="B C"/><path d="M37.511 24.843c1.268 0 2.273-.15 3.126-.56.505.273 1.057.455 1.675.528h0 0l.274.024h.017a.73.73 0 0 1 .132.008h.019.135-5.38z" class="B C"/></g><path d="M42.89 24.842h.146.045.102c.017 0 .034 0 .05-.008.032 0 .066 0 .1-.008h.049c.034 0 .071-.008.106-.011.02 0 .03-.008.041-.008.038-.008.077-.011.114-.017.012 0 .022 0 .035-.008l.129-.021h.008l.269-.054h0c.248.092.506.138.785.138l-1.978.008z" fill="#1d60b5" class="B C"/><path d="M41.144 20.341l-1.692 1.475-.884.664c.248.296.5.574.766.828.403.391.835.72 1.305.975l.318-.171a4.88 4.88 0 0 0 1.316-1.154c-.421-.718-.79-1.609-1.127-2.617" fill="#175fab" class="B C"/><path d="M57.946.003h-2.67-.266 0-.251 0-.01l-.506.025h0l-.236.504h0c-2.646 5.636-5.425 10.52-8.246 14.402h0c-1.327 4.083-2.3 6.56-3.494 8.018h0c.511.871 1.104 1.483 1.81 1.742h0c.021-.008.037-.008.056-.012h0 .011c.012 0 .026-.008.039-.008h0c.029-.008.06-.013.089-.022h0c.019-.008.034-.009.053-.015h0c.027-.008.055-.014.079-.021h0c.017-.008.033-.011.049-.014h0c.041-.013.078-.023.117-.035h0c.019-.008.038-.015.059-.02h0c.023-.008.045-.014.066-.024h0c.024-.008.047-.012.068-.021h0c.019-.008.038-.013.056-.021h0c.046-.017.092-.03.138-.049h0c.012 0 .025-.011.038-.014h0c.028-.012.057-.021.084-.033h0c.01-.008.023-.009.036-.013h0l.296-.127h0 .01a8.43 8.43 0 0 0 .429-.206h0c4.587-2.563 6.903-11.173 14.104-24.036h0-2.011z" fill="url(#O)" class="B C"/><path d="M18.126.568c.011 0 .022 0 .033.008.028 0 .056 0 .083.009h.028l.152.02c.009 0 .018 0 .026.008l.129.021c.009 0 .022.008.032.008l.296.066c.009 0 .019.008.027.008l.119.034c.012 0 .022.008.033.01l.141.04.134.05c.017.008.032.012.047.016l.089.036c.017 0 .033.011.05.017l.117.049.058.025a.51.51 0 0 0 .071.03l.063.03.063.032c.511.251.981.586 1.416.991a4.6 4.6 0 0 1 .502-.456C20.883.947 19.805.562 18.56.562l-.434.019" fill="#7dcbec" class="B C"/><path d="M21.333 2.066c.267.248.522.525.764.823l.698-.465c-.305-.305-.626-.578-.96-.814-.174.135-.341.287-.501.456" fill="#5ec5ed" class="B C"/><path d="M18.126.568L18.56.55c1.244 0 2.323.385 3.275 1.059C22.84.817 24.054.54 25.741.54h-8.169a6.1 6.1 0 0 1 .554.028" fill="url(#P)" class="B C"/><path d="M25.741.54c-1.687 0-2.901.277-3.906 1.069.333.236.655.509.959.814 1.399-.889 2.784-1.478 4.15-1.735A8.42 8.42 0 0 1 28.497.54h-2.756z" fill="url(#Q)" class="B C"/><path d="M45.765 14.943l2.586-8.248c.928-2.968 2.572-5.187 5.659-6.156l.238-.504c-5.032.302-7.384 2.861-8.567 6.652-2.07 6.618-3.323 10.908-4.531 13.642 1.542-1.474 3.084-3.283 4.615-5.385" fill="url(#R)" class="B C"/></symbol></svg>